<svg fill="none" height="24" viewBox="0 0 24 24" width="24" stroke="currentColor" xmlns="http://www.w3.org/2000/svg"><g stroke-linecap="round" stroke-linejoin="round"><g stroke-width="2"><path d="m4 9h16"/><path d="m4 15h6"/><path d="m10 3-2 18"/><path d="m16 3-1 6.5"/></g><path d="m20.2917 15.9583h-7.5834c-.5983 0-1.0833.4851-1.0833 1.0834v3.7916c0 .5984.485 1.0834 1.0833 1.0834h7.5834c.5983 0 1.0833-.485 1.0833-1.0834v-3.7916c0-.5983-.485-1.0834-1.0833-1.0834z"/><path d="m13.7917 15.9583v-2.1666c0-.7183.2853-1.4072.7932-1.9151.508-.5079 1.1968-.7933 1.9151-.7933s1.4072.2854 1.9151.7933.7933 1.1968.7933 1.9151v2.1666"/></g></svg>
