<svg height="100" viewBox="0 0 100 100" width="100" xmlns="http://www.w3.org/2000/svg"><path d="m90.9090909 0c5.0207705 0 9.0909091 4.07013864 9.0909091 9.09090909v81.81818181c0 5.0207705-4.0701386 9.0909091-9.0909091 9.0909091h-81.81818181c-5.02077045 0-9.09090909-4.0701386-9.09090909-9.0909091v-34.9090909h-41v-12h41v-34.90909091c0-5.02077045 4.07013864-9.09090909 9.09090909-9.09090909zm-84.9090909 90.9090909c0 1.6481978 1.29005488 2.995087 2.91551293 3.0860162l.17539616.0048929h28.96909091l-.026-19.017-14.034 7.017v-26h-18zm84.9090909-84.9090909h-46.9690909l.03 21.985 44.03 22.015-43.97 21.985.03 22.015h46.8490909c1.6481978 0 2.995087-1.2900549 3.0860162-2.9155129l.0048929-.1753962v-81.81818181c0-1.64819775-1.2900549-2.99508703-2.9155129-3.08601614zm-52.9690909 0h-28.84909091c-1.64819775 0-2.99508703 1.29005488-3.08601614 2.91551293l-.00489295.17539616v34.90909091h18v-26l13.966 6.983z"/></svg>