<svg width="48" height="48" viewBox="0 0 48 48" fill="none" xmlns="http://www.w3.org/2000/svg">
<g clip-path="url(#clip0_22_2)">
<rect width="48" height="48" fill="white"/>
<rect x="27.0782" y="2.20264" width="32.0388" height="35.6567" rx="11" transform="rotate(53.5 27.0782 2.20264)" fill="#FFDD00" stroke="#81B354" stroke-width="4"/>
<path fill-rule="evenodd" clip-rule="evenodd" d="M6.02663 21.1723C5.07329 22.8069 4.66359 24.7012 4.84037 26.5684L12.7104 27.7446L13.5252 22.293L6.02663 21.1723ZM14.412 16.3589L11.8308 15.9731L14.7978 13.7777L14.412 16.3589ZM19.4593 23.1799L18.6445 28.6314L24.0961 29.4462L24.9108 23.9946L19.4593 23.1799ZM25.7977 18.0605L20.3461 17.2458L21.5509 9.18446C23.3675 8.48553 25.3386 8.40889 27.1653 8.90987L25.7977 18.0605ZM30.8449 24.8814L30.0302 30.333L37.6259 31.4682C38.8979 29.9656 39.6156 28.1112 39.7334 26.2098L30.8449 24.8814ZM37.6333 19.8293L31.7318 18.9474L32.6138 13.0459L37.6333 19.8293ZM8.08702 33.1202L11.8236 33.6786L11.2652 37.4152L8.08702 33.1202ZM23.2092 35.3802L17.7577 34.5655L16.6151 42.2104C18.3738 42.8672 20.3152 42.966 22.1506 42.4637L23.2092 35.3802ZM28.8449 38.2637L29.1433 36.2671L31.1399 36.5655L28.8449 38.2637Z" fill="#BF7906"/>
<path d="M31.5 9L34.5141 2.63698C34.9436 1.73013 36.292 1.95034 36.4108 2.94673L37.0947 8.68559L41.8006 6.02576C42.6459 5.548 43.6075 6.43379 43.2006 7.31538L40.3801 13.4265L46.4216 16.125C47.3303 16.5309 47.1528 17.8706 46.1697 18.0258L40 19L38.6615 17.1502L38.5 17.5L33 11L33.8596 10.5141L31.5 9Z" fill="#81B354"/>
</g>
<defs>
<clipPath id="clip0_22_2">
<rect width="48" height="48" fill="white"/>
</clipPath>
</defs>
</svg>
