<svg height="512" viewBox="0 0 384 512" width="384" xmlns="http://www.w3.org/2000/svg"><path d="m304.335021 160h79.664979v328c0 13.255-10.745 24-24 24h-328.9319789l74.5269999-96h214.949979v-112l-39.514-39.515c-4.687-4.686-12.285-4.686-16.971 0l-103.515 103.515-9.956979-9.956zm-80.335021-160v136c0 4.842271 1.453363 9.361572 3.945417 13.143232l-69.815343 89.931793c1.566916-4.740846 2.414926-9.808889 2.414926-15.075025 0-26.51-21.49-48-48-48-26.509 0-48 21.49-48 48s21.49 48 48 48c9.54531 0 18.439795-2.786102 25.914618-7.589469l-138.4605969 178.352469.0009789-418.763c0-13.12245 10.5311745-23.784849 23.6031112-23.99678473l.3968888-.00321527zm136.129021 88.13 16.840979 16.84c4.501 4.501013 7.03 10.605616 7.03 16.971v6.059h-54.821979zm-98.070021-88.13c6.364938 0 12.469193 2.52842515 16.97 7.029l33.351021 33.352-56.381 72.625.000979-113.006z"/></svg>