<svg height="100" viewBox="0 0 100 100" width="100" xmlns="http://www.w3.org/2000/svg"><g fill="none" fill-rule="evenodd"><path d="m0 0h100v100h-100z" fill="#1a1a1a"/><path d="m52.88 62.088c0-1.536.18-3.06.54-4.572s1.02-2.892 1.98-4.14 1.932-2.484 2.916-3.708 1.884-2.496 2.7-3.816 1.464-2.724 1.944-4.212.72-3.024.72-4.608c0-1.728-.324-3.432-.972-5.112s-1.644-3.108-2.988-4.284-2.88-1.992-4.608-2.448-3.456-.684-5.184-.684-3.432.216-5.112.648-3.204 1.212-4.572 2.34-2.388 2.496-3.06 4.104-1.008 3.276-1.008 5.004v.36h5.76v-.216c0-1.344.36-2.616 1.08-3.816s1.716-2.04 2.988-2.52 2.58-.72 3.924-.72 2.664.264 3.96.792 2.292 1.404 2.988 2.628 1.044 2.532 1.044 3.924c0 1.872-.48 3.636-1.44 5.292s-2.064 3.18-3.312 4.572-2.388 2.88-3.42 4.464-1.728 3.3-2.088 5.148-.54 3.708-.54 5.58zm-2.88 16.488c.912 0 1.788-.192 2.628-.576s1.464-1.008 1.872-1.872.612-1.74.612-2.628-.204-1.764-.612-2.628-1.032-1.488-1.872-1.872-1.716-.576-2.628-.576-1.788.192-2.628.576-1.452 1.008-1.836 1.872-.576 1.74-.576 2.628.192 1.764.576 2.628.996 1.488 1.836 1.872 1.716.576 2.628.576z" fill="#3767ff"
                                                                                                                                                                             stroke="#000"/></g></svg>
