<?xml version="1.0" encoding="UTF-8"?>
<svg width="100px" height="100px" viewBox="0 0 100 100" version="1.1" xmlns="http://www.w3.org/2000/svg" xmlns:xlink="http://www.w3.org/1999/xlink">
    <title>logo</title>
    <g id="logo" stroke="none" stroke-width="1" fill="none" fill-rule="evenodd">
        <g id="head" transform="translate(27.646447, 25.060660) rotate(-45.000000) translate(-27.646447, -25.060660) translate(-4.353553, 0.560660)">
            <path d="M33.919588,22.1701691 C32.3722782,31.5903347 29.54245,29.0976191 32.5972479,35.0099793 C32.1748747,34.8568623 28.965199,34.2491434 28.5494248,34.0512798 C21.3143264,30.608156 25.3628336,25.8132835 26.4622265,15.1382719 C27.0665928,9.26992645 29.0106316,5.54375985 33.019398,1.00997933 C34.0111485,4.12633556 34.8876229,16.2766824 33.919588,22.1701691 Z" id="5" fill="#84B117" transform="translate(29.339654, 18.009979) rotate(11.000000) translate(-29.339654, -18.009979) "></path>
            <path d="M18.6521784,13.7175144 C29.5688299,13.7175144 38.4185245,23.5021153 38.4185245,35.5720322 C38.4185245,40.5066719 36.9393119,45.0593246 34.4443959,48.7175144 C34.4584057,48.3565247 34.4652553,47.9940259 34.4652553,47.6296972 C34.4652553,33.8949642 24.7305913,22.7607632 12.7222746,22.7607632 C8.15536613,22.7607632 3.9173127,24.3711841 0.418524548,27.1226116 C3.40518098,19.2485654 10.4444737,13.7175144 18.6521784,13.7175144 Z" id="4" fill="#84B117"></path>
            <path d="M23.5169177,9.99559514 C32.7698672,13.3956138 37.8054642,23.7927804 34.7642385,33.2183167 C33.5853702,36.8719311 31.3659497,39.8432473 28.5508795,41.9142136 L28.5714227,41.8512466 C32.1919295,30.6303701 26.9440237,18.5272236 16.849897,14.8181122 C12.7628135,13.3163035 8.50788967,13.4208942 4.6507576,14.822077 C9.16405475,9.57653256 16.5431197,7.43305614 23.5169177,9.99559514 Z" id="3" fill="#9BCF1C"></path>
            <path d="M47.276544,16.2121605 C36.0023372,12.2808316 23.5257474,21.3346505 21.2534704,32.8110631 C20.3244774,37.5030556 21.1069365,42.1447276 23.1835787,46.1507613 C23.2360102,45.8045589 23.2966621,45.4584361 23.3652504,45.1120222 C25.9509449,32.0526563 42.168124,21.0154203 51.4763299,24.6495369 C56.0438053,26.4327741 59.6271845,28.027578 62.9872118,31.383776 C59.9256113,23.4216173 55.3895196,19.0411645 47.276544,16.2121605 Z" id="2" fill="#84B117" transform="translate(41.926848, 30.714868) rotate(1.000000) translate(-41.926848, -30.714868) "></path>
            <path d="M40.1307236,12.1403905 C30.0869132,12.1675956 21.9247371,18.9999368 21.8999367,27.4009326 C21.8904016,30.6574051 23.1049201,33.6715691 25.1809778,36.1403905 L25.1809237,36.0842022 C25.2103808,26.0830167 34.1165701,17.9514666 45.0734542,17.9218766 C49.5098658,17.9098957 53.6022531,19.2280012 56.8999367,21.4649349 C54.1788071,15.9710505 47.7005808,12.1200285 40.1307236,12.1403905 Z" id="1" fill="#9BCF1C" transform="translate(39.399937, 24.140391) rotate(-32.000000) translate(-39.399937, -24.140391) "></path>
        </g>
        <rect id="body" fill="#C39146" transform="translate(54.803173, 55.871980) rotate(-45.000000) translate(-54.803173, -55.871980) " x="22.8031733" y="13.3719801" width="64" height="85" rx="24"></rect>
        <rect id="highlight-1" fill="#FFDEAD" x="25" y="42" width="12" height="12"></rect>
        <rect id="highlight-2" fill="#FFDEAD" x="38" y="55" width="12" height="12"></rect>
        <rect id="highlight-3" fill="#FFDEAD" x="51" y="68" width="12" height="12"></rect>
    </g>
</svg>