<svg height="128" viewBox="0 0 128 128" width="128" xmlns="http://www.w3.org/2000/svg"><g fill="none" fill-rule="evenodd"><path d="m38.341465 32.6229464c4.4527898 7.7484866.8478387 7.757678 6.658535 10.061122-.4076355.1585941-3.1741835 1.7629265-3.6035327 1.8851921-7.4713234 2.1276055-7.2948971-3.8897058-12.8307997-12.2545175-3.0432369-4.5983654-3.8066907-8.5101913-3.5044937-14.314743 2.5994937 1.6073157 10.4945165 9.7753031 13.2802911 14.6229464z" fill="#84b117"/><path d="m20.9733603 36.834852c7.6528965-6.381767 19.7152065-4.6166743 26.9419232 3.942445 2.9545559 3.4992925 4.6434296 7.5924403 5.0847165 11.6450695-.206317-.264178-.418557-.5252404-.6366943-.7835961-8.2235054-9.7396875-21.7142619-11.9444754-30.1324481-4.9245316-3.2015383 2.6697697-5.2083194 6.289289-6.0136897 10.2857612-2.6207552-7.3296787-.9976521-15.3670046 4.7561924-20.165148z" fill="#84b117"/><path d="m20.8153349 31.0538934c7.7764326-3.006461 16.3988139.6390788 19.2586278 8.1425409 1.1085478 2.908562 1.1885115 5.9698619.4178142 8.8035657l-.0189574-.0502516c-3.4045403-8.932693-13.0416047-13.515288-21.5249857-10.2355124-3.434897 1.3279719-6.1539971 3.7413014-7.9478338 6.7363101.2466735-5.7329179 3.9543637-11.1307318 9.8153349-13.3966527z" fill="#9bcf1c"/><path d="m41.2011732 17.0874743c-6.7499586 5.6029129-8.2166327 14.8668537-3.2759084 20.6915908 1.9151697 2.257839 4.51197 3.6674931 7.3673376 4.2209349l-.0331929-.0388354c-5.8818147-6.9342108-4.6805976-17.5104722 2.6829936-23.6227408 2.9814973-2.4748404 6.5161229-3.8383879 10.0575969-4.1245419-5.0749944-2.2872353-11.7114925-1.3492322-16.7988268 2.8735924z" fill="#9bcf1c"/><path d="m43.2879491 21.4203336c-9.7451291 6.2747333-12.2180828 19.0500172-5.5234966 28.5343952 2.7370007 3.8775734 6.5826028 6.6047565 10.8387935 8.0452712-.2127295-.2756082-.4199042-.5565179-.6219793-.8428024-7.6179774-10.7925682-5.1035814-25.1370173 5.6160607-32.0392239 4.0768098-2.6249929 8.7532767-3.7955176 13.4026726-3.6445357-7.033487-4.4706325-16.3851574-4.7707742-23.7120509-.0531044z" fill="#84b117"/><path d="m83.9412297 33.7755957.0381145.0454231 25.6263008 30.6084171c9.55764 11.4157809 8.070493 28.4139868-3.32427 37.9966741l-13.1805072 11.08445c-11.412482 9.597588-28.4445092 8.126326-38.0420975-3.286156l-.0381145-.045423-25.6263007-30.6084169c-9.5576401-11.4157809-8.0704935-28.4139868 3.3242701-37.9966745l13.180507-11.0844495c11.412482-9.5975883 28.4445092-8.1263263 38.0420975 3.2861556zm-18.9305736 54.7153925-1.1275776 12.9170448 12.8882713 1.130095 1.1275776-12.9170448zm-13.1671048-15.7269768-1.1275776 12.9170444 12.8882712 1.1300949 1.1275777-12.9170443zm-12.727662-15.4120302-1.1275776 12.9170444 12.8882712 1.1300949 1.1275776-12.9170443z" fill="#a77a36"/></g></svg>